# xmcd CD database file
#
# Track frame offsets:
#	183
#	9140
#	17285
#	39733
#	64245
#	88495
#	107435
#	121655
#	142428
#	151490
#	172015
#	189393
#	202840
#	217138
#	235243
#	242640
#
# Disc length: 3456 seconds
#
# Revision: 1
# Processed by: cddbd v1.5.2PL0 Copyright (c) Steve Scherf et al.
# Submitted via: CDex 1.51
#
DISCID=d90d7e10
DTITLE=Dissing, Poul and Benny Andersen - 16 Sange
DYEAR=1900
DGENRE=Folk
TTITLE0=Aarstiderne
TTITLE1=Lille sang til Nina
TTITLE2=Aftentur med Roselina
TTITLE3=Den lille mand fra bjerget
TTITLE4=Da jeg mødte dig
TTITLE5=Hymne til natten
TTITLE6=Månen over Yangtzekiang
TTITLE7=En sang om sang
TTITLE8=Svantes Drikkevise
TTITLE9=Rosalina
TTITLE10=Hymne til den danske sommer
TTITLE11=Svante i stormagasinet
TTITLE12=Svantes lykkelige dag
TTITLE13=Udsigt med kikkert
TTITLE14=Svante i paradis
TTITLE15=Go'nu nat
EXTD=
EXTT0=
EXTT1=
EXTT2=
EXTT3=
EXTT4=
EXTT5=
EXTT6=
EXTT7=
EXTT8=
EXTT9=
EXTT10=
EXTT11=
EXTT12=
EXTT13=
EXTT14=
EXTT15=
PLAYORDER=
